<svg width="38" height="38" viewBox="0 0 38 38" fill="none" xmlns="http://www.w3.org/2000/svg">
<g clip-path="url(#clip0_4_10)">
<path fill-rule="evenodd" clip-rule="evenodd" d="M19 0C8.55 0 0 8.55 0 19C0 29.45 8.55 38 19 38C29.45 38 38 29.45 38 19C38 8.55 29.45 0 19 0ZM19 5.7C22.23 5.7 24.7 8.17 24.7 11.4C24.7 14.63 22.23 17.1 19 17.1C15.77 17.1 13.3 14.63 13.3 11.4C13.3 8.17 15.77 5.7 19 5.7ZM19 32.68C14.25 32.68 10.07 30.21 7.6 26.6C7.6 22.8 15.2 20.71 19 20.71C22.8 20.71 30.4 22.8 30.4 26.6C27.93 30.21 23.75 32.68 19 32.68Z" fill="#47434B"/>
</g>
<defs>
<clipPath id="clip0_4_10">
<rect width="38" height="38" fill="white"/>
</clipPath>
</defs>
</svg>
