<svg width="34" height="34" viewBox="0 0 34 34" fill="none" xmlns="http://www.w3.org/2000/svg">
<path d="M32.5833 31.1667H29.75V15.5833C29.75 14.8319 29.4515 14.1112 28.9201 13.5799C28.3888 13.0485 27.6681 12.75 26.9167 12.75H24.0833C23.3319 12.75 22.6112 13.0485 22.0799 13.5799C21.5485 14.1112 21.25 14.8319 21.25 15.5833V31.1667H15.5833V4.25C15.5833 3.49855 15.2848 2.77788 14.7535 2.24653C14.2221 1.71518 13.5014 1.41667 12.75 1.41667H9.91667C9.16522 1.41667 8.44455 1.71518 7.9132 2.24653C7.38184 2.77788 7.08333 3.49855 7.08333 4.25V31.1667H5.66667C4.91522 31.1667 4.19455 30.8682 3.6632 30.3368C3.13184 29.8054 2.83333 29.0848 2.83333 28.3333V1.41667C2.83333 1.04094 2.68408 0.680609 2.4184 0.414932C2.15272 0.149256 1.79239 0 1.41667 0C1.04094 0 0.680609 0.149256 0.414932 0.414932C0.149256 0.680609 0 1.04094 0 1.41667L0 28.3333C0 29.8362 0.597022 31.2776 1.65973 32.3403C2.72243 33.403 4.16377 34 5.66667 34H32.5833C32.9591 34 33.3194 33.8507 33.5851 33.5851C33.8507 33.3194 34 32.9591 34 32.5833C34 32.2076 33.8507 31.8473 33.5851 31.5816C33.3194 31.3159 32.9591 31.1667 32.5833 31.1667Z" fill="white"/>
</svg>
