<svg width="95" height="70" viewBox="0 0 95 70" fill="none" xmlns="http://www.w3.org/2000/svg">
<path d="M20.1216 42V27.4545H23.1969V39.4645H29.4327V42H20.1216ZM44.2694 34.7273C44.2694 36.3134 43.9687 37.6629 43.3674 38.7756C42.7708 39.8883 41.9564 40.7382 40.9242 41.3253C39.8967 41.9077 38.7414 42.1989 37.4583 42.1989C36.1657 42.1989 35.0056 41.9053 33.9782 41.3182C32.9507 40.7311 32.1387 39.8812 31.5421 38.7685C30.9455 37.6558 30.6472 36.3087 30.6472 34.7273C30.6472 33.1411 30.9455 31.7917 31.5421 30.679C32.1387 29.5663 32.9507 28.7187 33.9782 28.1364C35.0056 27.5492 36.1657 27.2557 37.4583 27.2557C38.7414 27.2557 39.8967 27.5492 40.9242 28.1364C41.9564 28.7187 42.7708 29.5663 43.3674 30.679C43.9687 31.7917 44.2694 33.1411 44.2694 34.7273ZM41.1515 34.7273C41.1515 33.6998 40.9976 32.8333 40.6898 32.1278C40.3868 31.4223 39.9583 30.8873 39.4043 30.5227C38.8503 30.1581 38.2016 29.9759 37.4583 29.9759C36.7149 29.9759 36.0662 30.1581 35.5123 30.5227C34.9583 30.8873 34.5274 31.4223 34.2196 32.1278C33.9166 32.8333 33.7651 33.6998 33.7651 34.7273C33.7651 35.7547 33.9166 36.6212 34.2196 37.3267C34.5274 38.0322 34.9583 38.5672 35.5123 38.9318C36.0662 39.2964 36.7149 39.4787 37.4583 39.4787C38.2016 39.4787 38.8503 39.2964 39.4043 38.9318C39.9583 38.5672 40.3868 38.0322 40.6898 37.3267C40.9976 36.6212 41.1515 35.7547 41.1515 34.7273ZM56.1923 32.1562C56.0929 31.8106 55.9532 31.5052 55.7733 31.2401C55.5933 30.9702 55.3732 30.7429 55.1127 30.5582C54.8571 30.3688 54.5635 30.2244 54.2321 30.125C53.9054 30.0256 53.5431 29.9759 53.1454 29.9759C52.402 29.9759 51.7486 30.1605 51.1852 30.5298C50.6265 30.8991 50.1909 31.4366 49.8784 32.142C49.5659 32.8428 49.4096 33.6998 49.4096 34.7131C49.4096 35.7263 49.5635 36.5881 49.8713 37.2983C50.179 38.0085 50.6146 38.5507 51.1781 38.9247C51.7415 39.294 52.4068 39.4787 53.1738 39.4787C53.8699 39.4787 54.4641 39.3556 54.9565 39.1094C55.4537 38.8584 55.8324 38.5057 56.0929 38.0511C56.358 37.5966 56.4906 37.0592 56.4906 36.4389L57.1156 36.5312H53.3656V34.2159H59.4522V36.0483C59.4522 37.3267 59.1824 38.4252 58.6426 39.3438C58.1028 40.2576 57.3594 40.9631 56.4125 41.4602C55.4655 41.9527 54.3812 42.1989 53.1596 42.1989C51.796 42.1989 50.5981 41.8982 49.5659 41.2969C48.5337 40.6908 47.7288 39.8314 47.1511 38.7188C46.5782 37.6013 46.2917 36.2756 46.2917 34.7415C46.2917 33.5625 46.4622 32.5114 46.8031 31.5881C47.1487 30.66 47.6317 29.8741 48.252 29.2301C48.8722 28.5862 49.5943 28.0961 50.4181 27.7599C51.242 27.4238 52.1345 27.2557 53.0957 27.2557C53.9196 27.2557 54.6866 27.3764 55.3968 27.6179C56.1071 27.8546 56.7368 28.1908 57.286 28.6264C57.84 29.062 58.2922 29.5805 58.6426 30.1818C58.993 30.7784 59.2179 31.4366 59.3173 32.1562H56.1923ZM75.1287 34.7273C75.1287 36.3134 74.8281 37.6629 74.2267 38.7756C73.6301 39.8883 72.8158 40.7382 71.7836 41.3253C70.7561 41.9077 69.6008 42.1989 68.3176 42.1989C67.025 42.1989 65.865 41.9053 64.8375 41.3182C63.8101 40.7311 62.998 39.8812 62.4015 38.7685C61.8049 37.6558 61.5066 36.3087 61.5066 34.7273C61.5066 33.1411 61.8049 31.7917 62.4015 30.679C62.998 29.5663 63.8101 28.7187 64.8375 28.1364C65.865 27.5492 67.025 27.2557 68.3176 27.2557C69.6008 27.2557 70.7561 27.5492 71.7836 28.1364C72.8158 28.7187 73.6301 29.5663 74.2267 30.679C74.8281 31.7917 75.1287 33.1411 75.1287 34.7273ZM72.0108 34.7273C72.0108 33.6998 71.8569 32.8333 71.5492 32.1278C71.2462 31.4223 70.8176 30.8873 70.2637 30.5227C69.7097 30.1581 69.061 29.9759 68.3176 29.9759C67.5743 29.9759 66.9256 30.1581 66.3716 30.5227C65.8176 30.8873 65.3868 31.4223 65.079 32.1278C64.776 32.8333 64.6245 33.6998 64.6245 34.7273C64.6245 35.7547 64.776 36.6212 65.079 37.3267C65.3868 38.0322 65.8176 38.5672 66.3716 38.9318C66.9256 39.2964 67.5743 39.4787 68.3176 39.4787C69.061 39.4787 69.7097 39.2964 70.2637 38.9318C70.8176 38.5672 71.2462 38.0322 71.5492 37.3267C71.8569 36.6212 72.0108 35.7547 72.0108 34.7273Z" fill="#3A3A3A"/>
<path fill-rule="evenodd" clip-rule="evenodd" d="M82 35C82 41.5825 80.1829 47.7406 77.0228 53H74.6632C68.7751 62.0306 58.5847 68 47 68C35.4153 68 25.2249 62.0306 19.3368 53H16.9772C13.8171 47.7406 12 41.5825 12 35C12 28.4175 13.8171 22.2594 16.9772 17H19.3368C25.2249 7.96936 35.4153 2 47 2C58.5847 2 68.7751 7.96936 74.6632 17H77.0228C80.1829 22.2594 82 28.4175 82 35ZM77.0228 17C70.9032 6.81482 59.7474 0 47 0C34.2526 0 23.0968 6.81482 16.9772 17H10C10 22.5229 5.52283 27 0 27V43C5.52283 43 10 47.4771 10 53H16.9772C23.0968 63.1852 34.2526 70 47 70C59.7474 70 70.9032 63.1852 77.0228 53H85C85 47.4771 89.4771 43 95 43V27C89.4771 27 85 22.5229 85 17H77.0228Z" fill="#4A4A4A"/>
<path fill-rule="evenodd" clip-rule="evenodd" d="M67.3963 58C62.0437 62.9647 54.8763 66 47 66C39.1237 66 31.9563 62.9647 26.6038 58H29.6776C34.4435 61.7577 40.4599 64 47 64C53.5401 64 59.5565 61.7577 64.3224 58H67.3963ZM66.2625 13C61.051 8.6308 54.3328 6 47 6C39.6673 6 32.949 8.6308 27.7376 13H31.027C35.5572 9.84793 41.0628 8 47 8C52.9373 8 58.4428 9.84793 62.9731 13H66.2625Z" fill="#D0D0D0"/>
</svg>
