<svg width="38" height="34" viewBox="0 0 38 34" fill="none" xmlns="http://www.w3.org/2000/svg">
<path d="M17.1905 1.13336L0 13.6H3.61905V15.8666V29.4667V31.7333C3.61905 32.8667 4.4261 34 5.42857 34H10.8571V22.6667C10.8571 21.4109 11.6642 20.4 12.6667 20.4H25.3333C26.3358 20.4 27.1116 21.4115 27.1429 22.6667V34H32.5714C33.5739 34 34.381 32.9891 34.381 31.7333V29.4667V15.8666V13.6H38L20.8095 1.13336C20.036 0.572356 19.2748 0.00113853 19 1.56928e-06C18.7252 -0.00108643 17.9758 0.563745 17.1905 1.13336ZM12.6667 22.6667V24.9333H25.3333V22.6667H12.6667ZM12.6667 27.2V29.4667H25.3333V27.2H12.6667ZM12.6667 31.7333V34H25.3333V31.7333H12.6667Z" fill="#47434B"/>
</svg>
