<svg width="38" height="38" viewBox="0 0 38 38" fill="none" xmlns="http://www.w3.org/2000/svg">
<path d="M24.7 11.4C24.7 14.548 22.1481 17.1 19 17.1C15.852 17.1 13.3 14.548 13.3 11.4C13.3 8.25199 15.852 5.7 19 5.7C22.1481 5.7 24.7 8.25199 24.7 11.4Z" fill="#47434B"/>
<path d="M34.2 15.2C34.2 17.2987 32.4987 19 30.4 19C28.3012 19 26.6 17.2987 26.6 15.2C26.6 13.1013 28.3012 11.4 30.4 11.4C32.4987 11.4 34.2 13.1013 34.2 15.2Z" fill="#47434B"/>
<path d="M26.6 28.5C26.6 24.3027 23.1973 20.9 19 20.9C14.8027 20.9 11.4 24.3027 11.4 28.5V34.2H26.6V28.5Z" fill="#47434B"/>
<path d="M11.4 15.2C11.4 17.2987 9.69867 19 7.59999 19C5.5013 19 3.79999 17.2987 3.79999 15.2C3.79999 13.1013 5.5013 11.4 7.59999 11.4C9.69867 11.4 11.4 13.1013 11.4 15.2Z" fill="#47434B"/>
<path d="M30.4 34.2V28.5C30.4 26.4972 29.8836 24.6149 28.9763 22.9792C29.4314 22.8621 29.9085 22.8 30.4 22.8C33.5481 22.8 36.1 25.3519 36.1 28.5V34.2H30.4Z" fill="#47434B"/>
<path d="M9.02362 22.9792C8.11654 24.6149 7.60002 26.4972 7.60002 28.5V34.2H1.90002V28.5C1.90002 25.3519 4.45201 22.8 7.60002 22.8C8.09157 22.8 8.56859 22.8621 9.02362 22.9792Z" fill="#47434B"/>
</svg>
