<svg width="38" height="38" viewBox="0 0 38 38" fill="none" xmlns="http://www.w3.org/2000/svg">
<path d="M32.0625 17.1223C31.3139 16.7936 30.5051 16.6243 29.6875 16.625H8.3125C7.49499 16.6242 6.68623 16.7933 5.9375 17.1215C4.87929 17.5843 3.97882 18.3453 3.34615 19.3116C2.71348 20.2779 2.37601 21.4075 2.375 22.5625V30.875C2.375 31.1899 2.50011 31.492 2.72281 31.7147C2.94551 31.9374 3.24756 32.0625 3.5625 32.0625C3.87744 32.0625 4.17949 31.9374 4.40219 31.7147C4.62489 31.492 4.75 31.1899 4.75 30.875V30.2813C4.75192 30.1244 4.8151 29.9745 4.92603 29.8635C5.03697 29.7526 5.18688 29.6894 5.34375 29.6875H32.6562C32.8131 29.6894 32.963 29.7526 33.074 29.8635C33.1849 29.9745 33.2481 30.1244 33.25 30.2813V30.875C33.25 31.1899 33.3751 31.492 33.5978 31.7147C33.8205 31.9374 34.1226 32.0625 34.4375 32.0625C34.7524 32.0625 35.0545 31.9374 35.2772 31.7147C35.4999 31.492 35.625 31.1899 35.625 30.875V22.5625C35.6238 21.4077 35.2863 20.2782 34.6536 19.312C34.021 18.3459 33.1206 17.585 32.0625 17.1223Z" fill="#47434B"/>
<path d="M31.6875 17.4973C30.9389 17.1686 30.1301 16.9993 29.3125 17H7.9375C7.11999 16.9992 6.31123 17.1683 5.5625 17.4965C4.50429 17.9593 3.60382 18.7203 2.97115 19.6866C2.33848 20.6529 2.00101 21.7825 2 22.9375V31.25C2 31.5649 2.12511 31.867 2.34781 32.0897C2.57051 32.3124 2.87256 32.4375 3.1875 32.4375C3.50244 32.4375 3.80449 32.3124 4.02719 32.0897C4.24989 31.867 4.375 31.5649 4.375 31.25V30.6563C4.37693 30.4994 4.4401 30.3495 4.55103 30.2385C4.66197 30.1276 4.81188 30.0644 4.96875 30.0625H32.2812C32.4381 30.0644 32.588 30.1276 32.699 30.2385C32.8099 30.3495 32.8731 30.4994 32.875 30.6563V31.25C32.875 31.5649 33.0001 31.867 33.2228 32.0897C33.4455 32.3124 33.7476 32.4375 34.0625 32.4375C34.3774 32.4375 34.6795 32.3124 34.9022 32.0897C35.1249 31.867 35.25 31.5649 35.25 31.25V22.9375C35.2488 21.7827 34.9113 20.6532 34.2786 19.687C33.646 18.7209 32.7456 17.96 31.6875 17.4973Z" fill="#47434B"/>
<path d="M27.9062 5.9375H10.0938C8.99144 5.9375 7.93429 6.37539 7.15484 7.15484C6.37539 7.93429 5.9375 8.99144 5.9375 10.0938V15.4375C5.93753 15.4835 5.94826 15.5289 5.96883 15.57C5.9894 15.6112 6.01925 15.647 6.05603 15.6746C6.0928 15.7023 6.1355 15.721 6.18075 15.7293C6.226 15.7376 6.27256 15.7353 6.31676 15.7225C6.96503 15.5329 7.63707 15.4369 8.3125 15.4375H8.62645C8.69972 15.438 8.77058 15.4113 8.82539 15.3627C8.8802 15.314 8.91508 15.2468 8.92332 15.174C8.98809 14.5938 9.26433 14.0577 9.69927 13.6682C10.1342 13.2787 10.6974 13.0631 11.2812 13.0625H15.4375C16.0217 13.0625 16.5855 13.2779 17.0209 13.6675C17.4563 14.057 17.7328 14.5934 17.7977 15.174C17.8059 15.2468 17.8408 15.314 17.8956 15.3627C17.9504 15.4113 18.0213 15.438 18.0945 15.4375H19.9099C19.9832 15.438 20.0541 15.4113 20.1089 15.3627C20.1637 15.314 20.1986 15.2468 20.2068 15.174C20.2715 14.5942 20.5474 14.0584 20.9819 13.669C21.4164 13.2795 21.979 13.0636 22.5625 13.0625H26.7188C27.303 13.0625 27.8667 13.2779 28.3021 13.6675C28.7375 14.057 29.0141 14.5934 29.0789 15.174C29.0871 15.2468 29.122 15.314 29.1768 15.3627C29.2316 15.4113 29.3025 15.438 29.3758 15.4375H29.6875C30.363 15.4372 31.035 15.5334 31.6832 15.7232C31.7275 15.736 31.7741 15.7383 31.8194 15.73C31.8647 15.7216 31.9075 15.7029 31.9443 15.6751C31.9811 15.6474 32.0109 15.6115 32.0314 15.5703C32.0519 15.529 32.0626 15.4836 32.0625 15.4375V10.0938C32.0625 8.99144 31.6246 7.93429 30.8452 7.15484C30.0657 6.37539 29.0086 5.9375 27.9062 5.9375Z" fill="#47434B"/>
</svg>
