<svg width="34" height="34" viewBox="0 0 34 34" fill="none" xmlns="http://www.w3.org/2000/svg">
<path d="M17 20.1875C18.7604 20.1875 20.1875 18.7604 20.1875 17C20.1875 15.2396 18.7604 13.8125 17 13.8125C15.2396 13.8125 13.8125 15.2396 13.8125 17C13.8125 18.7604 15.2396 20.1875 17 20.1875Z" fill="white"/>
<path d="M31.2368 19.9219L31.2056 19.8966L29.1098 18.2531C28.9771 18.1481 28.8712 18.0131 28.8008 17.8592C28.7303 17.7054 28.6974 17.537 28.7047 17.3679V16.6002C28.6981 16.4322 28.7314 16.2651 28.8019 16.1124C28.8725 15.9598 28.9782 15.8261 29.1105 15.7223L31.2056 14.0781L31.2368 14.0529C31.5599 13.7837 31.7768 13.4084 31.8485 12.994C31.9203 12.5797 31.8424 12.1533 31.6286 11.7911L28.7924 6.88367C28.7891 6.87904 28.7862 6.87416 28.7838 6.86906C28.5689 6.51191 28.2357 6.24129 27.842 6.10421C27.4484 5.96714 27.0191 5.97225 26.6289 6.11867L26.6056 6.1273L24.142 7.11875C23.9865 7.18162 23.8183 7.20664 23.6512 7.19175C23.4841 7.17685 23.323 7.12247 23.1811 7.03309C22.9633 6.89585 22.7419 6.76613 22.517 6.64395C22.3712 6.56487 22.246 6.45264 22.1515 6.3163C22.0571 6.17996 21.996 6.02332 21.9731 5.85902L21.6019 3.23L21.594 3.18219C21.5131 2.77498 21.2946 2.408 20.9751 2.14293C20.6556 1.87785 20.2546 1.73082 19.8395 1.72656H14.1604C13.7395 1.72791 13.3325 1.87778 13.0112 2.14977C12.6898 2.42176 12.4748 2.79843 12.404 3.2134L12.398 3.25059L12.0281 5.88492C12.0054 6.04875 11.9448 6.20501 11.8511 6.34128C11.7574 6.47755 11.6331 6.59006 11.4883 6.66984C11.2611 6.79203 11.0393 6.92152 10.8242 7.05633C10.6825 7.14517 10.5218 7.19914 10.3552 7.2138C10.1886 7.22846 10.021 7.20339 9.86595 7.14066L7.40028 6.14457L7.37704 6.13527C6.98621 5.9887 6.55637 5.98377 6.16229 6.12136C5.76821 6.25895 5.43483 6.53034 5.22017 6.88832L5.21153 6.90293L2.37134 11.8137C2.15726 12.1762 2.07913 12.6031 2.15091 13.0179C2.22269 13.4328 2.4397 13.8086 2.76314 14.0781L2.79435 14.1034L4.89013 15.7469C5.02285 15.8519 5.12877 15.9869 5.19918 16.1408C5.2696 16.2946 5.30251 16.463 5.29521 16.6321V17.3998C5.30186 17.5678 5.26854 17.7349 5.19801 17.8876C5.12747 18.0402 5.02173 18.1739 4.88946 18.2777L2.79435 19.9219L2.76314 19.9471C2.44002 20.2163 2.22319 20.5916 2.15141 21.006C2.07963 21.4203 2.15759 21.8467 2.37134 22.2089L5.20755 27.1163C5.21081 27.121 5.2137 27.1258 5.21618 27.1309C5.43109 27.4881 5.76429 27.7587 6.15794 27.8958C6.55158 28.0329 6.9808 28.0277 7.37107 27.8813L7.39431 27.8727L9.85599 26.8812C10.0115 26.8184 10.1797 26.7934 10.3468 26.8083C10.5138 26.8231 10.675 26.8775 10.8169 26.9669C11.0347 27.1046 11.2561 27.2343 11.4809 27.3561C11.6268 27.4351 11.752 27.5474 11.8464 27.6837C11.9409 27.82 12.002 27.9767 12.0248 28.141L12.394 30.77L12.402 30.8178C12.483 31.2257 12.7021 31.5932 13.0224 31.8583C13.3427 32.1235 13.7446 32.2701 14.1604 32.2734H19.8395C20.2605 32.2721 20.6675 32.1222 20.9888 31.8502C21.3101 31.5782 21.5251 31.2016 21.5959 30.7866L21.6019 30.7494L21.9718 28.1151C21.9949 27.9509 22.056 27.7945 22.1503 27.6582C22.2446 27.5219 22.3695 27.4096 22.515 27.3302C22.7421 27.208 22.9639 27.0785 23.1791 26.9437C23.3207 26.8548 23.4815 26.8009 23.648 26.7862C23.8146 26.7715 23.9823 26.7966 24.1373 26.8593L26.603 27.8521L26.6262 27.8614C27.017 28.0083 27.447 28.0133 27.8411 27.8757C28.2353 27.7381 28.5686 27.4665 28.7831 27.1084C28.7857 27.1033 28.7886 27.0985 28.7917 27.0938L31.6279 22.187C31.8424 21.8245 31.9208 21.3975 31.8492 20.9825C31.7775 20.5674 31.5604 20.1915 31.2368 19.9219ZM22.3065 17.2497C22.2581 18.278 21.912 19.2702 21.3103 20.1055C20.7085 20.9408 19.877 21.5832 18.9168 21.9547C17.9567 22.3262 16.9093 22.4107 15.9021 22.198C14.8948 21.9852 13.971 21.4844 13.2431 20.7564C12.5152 20.0284 12.0145 19.1046 11.8019 18.0973C11.5893 17.09 11.6739 16.0426 12.0455 15.0826C12.4171 14.1225 13.0597 13.291 13.895 12.6894C14.7304 12.0877 15.7226 11.7417 16.7509 11.6935C17.4892 11.661 18.2262 11.7824 18.915 12.0502C19.6038 12.3179 20.2293 12.726 20.7518 13.2486C21.2743 13.7712 21.6824 14.3968 21.95 15.0856C22.2177 15.7744 22.3391 16.5114 22.3065 17.2497Z" fill="white"/>
</svg>
